<?xml version="1.0" standalone="no"?>
<!DOCTYPE svg PUBLIC "-//W3C//DTD SVG 20010904//EN"
 "http://www.w3.org/TR/2001/REC-SVG-20010904/DTD/svg10.dtd">
<svg version="1.0" xmlns="http://www.w3.org/2000/svg"
 width="1388.000000pt" height="1388.000000pt" viewBox="0 0 1388.000000 1388.000000"
 preserveAspectRatio="xMidYMid meet">
<metadata>
Created by potrace 1.14, written by Peter Selinger 2001-2017
</metadata>
<g transform="translate(0.000000,1388.000000) scale(0.100000,-0.100000)"
fill="#000000" stroke="none">
<path d="M0 6925 l0 -3025 3040 0 3040 0 0 595 0 595 -2430 0 -2430 0 0 1825
0 1825 2430 0 2430 0 0 605 0 605 -3040 0 -3040 0 0 -3025z"/>
<path d="M7197 9721 l-28 -6 1 -293 c0 -161 3 -306 7 -322 10 -51 73 -86 110
-62 17 11 5 49 -18 55 -18 5 -19 18 -19 290 0 269 -4 349 -19 346 -3 -1 -19
-4 -34 -8z"/>
<path d="M11697 9721 l-28 -6 1 -302 c0 -180 5 -314 11 -331 6 -18 22 -35 38
-42 35 -14 84 -3 77 17 -3 8 -6 18 -6 23 0 4 -9 10 -20 13 -19 5 -20 14 -20
290 0 269 -4 349 -19 346 -3 -1 -19 -4 -34 -8z"/>
<path d="M7400 9691 c-23 -43 2 -91 47 -91 42 0 71 68 41 98 -20 20 -76 15
-88 -7z"/>
<path d="M10454 9685 c-9 -14 -13 -32 -9 -45 15 -47 86 -50 107 -5 27 59 -62
105 -98 50z"/>
<path d="M11430 9691 c-23 -43 2 -91 47 -91 42 0 71 68 41 98 -20 20 -76 15
-88 -7z"/>
<path d="M11900 9691 c-23 -43 2 -91 47 -91 42 0 71 68 41 98 -20 20 -76 15
-88 -7z"/>
<path d="M6458 9364 l-3 -326 -42 -38 c-41 -36 -42 -38 -24 -54 26 -24 47 -20
90 19 57 52 61 80 61 424 l0 301 -40 0 -39 0 -3 -326z"/>
<path d="M8895 9678 c-3 -11 -56 -608 -55 -630 0 -5 15 -8 34 -8 42 0 39 -14
63 312 9 136 20 245 22 242 3 -3 39 -127 81 -277 l75 -272 34 0 34 0 78 274
c43 150 80 275 82 277 2 2 11 -103 21 -234 10 -130 20 -256 23 -280 6 -42 6
-43 42 -40 33 3 36 5 34 33 -21 254 -44 521 -49 563 l-6 53 -56 -3 -56 -3 -43
-150 c-24 -82 -56 -199 -72 -260 l-29 -110 -12 45 c-6 25 -38 141 -71 258 -32
117 -59 215 -59 217 0 12 -111 4 -115 -7z"/>
<path d="M8205 9516 c-86 -37 -114 -143 -55 -210 24 -27 44 -37 103 -51 39
-10 82 -27 95 -38 30 -28 29 -71 -4 -104 -23 -23 -31 -25 -87 -21 -34 2 -77
12 -96 21 -19 9 -35 16 -36 15 -1 -2 -8 -14 -15 -27 -15 -28 -8 -34 64 -56
127 -39 241 4 267 99 14 53 -2 108 -40 136 -16 11 -65 29 -108 40 -44 11 -83
27 -90 37 -36 48 8 113 77 113 22 0 57 -7 78 -15 34 -15 38 -15 49 1 22 30 15
41 -34 58 -56 19 -127 20 -168 2z"/>
<path d="M13175 9516 c-87 -38 -114 -143 -54 -210 25 -29 43 -38 103 -51 41
-9 83 -25 95 -36 29 -27 27 -74 -4 -104 -31 -32 -109 -34 -174 -5 -24 11 -45
19 -46 18 -1 -2 -8 -14 -15 -27 -15 -28 -8 -34 64 -56 97 -29 188 -13 236 42
36 41 47 92 29 140 -19 49 -50 69 -143 92 -43 11 -83 24 -87 28 -5 5 -11 23
-15 40 -5 26 -1 37 19 57 31 30 81 34 146 11 41 -14 42 -14 53 11 10 20 9 27
-3 35 -46 29 -153 37 -204 15z"/>
<path d="M6693 9513 c-23 -4 -23 -5 -23 -199 0 -215 6 -241 60 -269 34 -18
122 -20 153 -4 12 6 32 21 44 32 13 11 24 19 26 16 2 -2 11 -16 20 -31 21 -34
40 -35 60 -5 13 20 13 26 1 42 -11 15 -14 65 -14 223 0 182 -2 203 -16 198 -9
-3 -24 -6 -35 -6 -18 0 -19 -9 -19 -169 0 -156 -2 -170 -21 -195 -46 -59 -123
-73 -164 -31 -25 24 -25 26 -25 215 0 146 -3 190 -12 189 -7 -1 -23 -4 -35 -6z"/>
<path d="M7428 9513 c-17 -4 -18 -24 -18 -239 l0 -234 35 0 35 0 0 240 c0 261
3 248 -52 233z"/>
<path d="M7663 9510 c-23 -9 -23 -12 -23 -177 1 -199 8 -238 51 -277 29 -26
36 -28 99 -24 54 3 74 9 102 30 l34 26 26 -31 26 -32 23 23 c21 20 22 24 9 45
-10 16 -15 73 -18 225 -4 172 -7 202 -19 198 -8 -3 -23 -6 -34 -6 -18 0 -19
-9 -19 -172 -1 -186 -2 -193 -57 -230 -43 -28 -111 -20 -135 16 -4 6 -8 98 -8
204 0 210 1 205 -57 182z"/>
<path d="M9650 9511 c-22 -7 -90 -39 -98 -46 -2 -2 4 -15 13 -28 l16 -26 49
25 c31 16 65 24 97 24 63 0 83 -19 83 -82 l0 -45 -73 -5 c-160 -10 -246 -115
-189 -228 36 -73 148 -91 229 -38 l38 25 23 -29 c29 -34 49 -36 63 -4 9 19 8
29 -5 47 -13 19 -16 52 -16 186 l0 163 -29 32 c-27 30 -33 33 -102 35 -41 1
-85 -1 -99 -6z m160 -294 c0 -56 -3 -66 -28 -90 -83 -80 -192 -33 -166 71 13
53 61 82 135 82 l59 0 0 -63z"/>
<path d="M10478 9513 c-17 -4 -18 -24 -18 -239 l0 -234 40 0 40 0 0 240 0 240
-22 -1 c-13 -1 -31 -3 -40 -6z"/>
<path d="M10702 9513 c-18 -4 -22 -9 -16 -21 5 -9 10 -115 12 -235 l3 -218 32
3 32 3 3 178 2 177 40 26 c48 32 106 36 126 9 11 -14 14 -63 14 -207 l0 -188
35 0 35 0 2 177 3 176 49 34 c55 38 87 42 116 13 19 -19 20 -33 20 -210 l0
-190 35 0 35 0 0 206 0 206 -35 35 c-33 33 -39 35 -88 31 -38 -3 -66 -13 -96
-34 l-43 -30 -33 33 c-27 27 -41 33 -74 33 -41 0 -90 -19 -122 -47 -15 -12
-18 -11 -27 16 -11 31 -15 32 -60 24z"/>
<path d="M11458 9513 c-17 -4 -18 -24 -18 -239 l0 -234 35 0 35 0 0 240 c0
261 3 248 -52 233z"/>
<path d="M11928 9513 c-17 -4 -18 -24 -18 -239 l0 -234 35 0 35 0 0 240 c0
261 3 248 -52 233z"/>
<path d="M12190 9497 c-57 -23 -69 -40 -47 -69 13 -16 17 -15 62 7 62 32 134
34 160 5 11 -12 19 -37 19 -63 l1 -42 -73 -7 c-133 -11 -205 -70 -205 -165 0
-52 24 -90 74 -116 49 -26 127 -19 172 16 l34 26 22 -30 c26 -35 44 -37 65 -7
14 20 14 24 -2 41 -15 17 -17 38 -14 173 4 171 -6 212 -59 239 -43 23 -144 18
-209 -8z m190 -283 c0 -61 -2 -68 -31 -95 -40 -37 -107 -43 -141 -12 -21 18
-25 92 -7 124 15 29 65 48 127 49 l52 0 0 -66z"/>
<path d="M12623 9510 c-19 -8 -20 -13 -12 -47 5 -21 9 -125 9 -230 l0 -193 35
0 35 0 0 180 0 180 39 25 c54 36 100 42 131 17 25 -20 25 -22 28 -211 l3 -191
35 0 34 0 0 195 c0 218 -6 242 -62 271 -41 21 -119 14 -158 -14 -40 -30 -52
-31 -60 -2 -7 27 -24 34 -57 20z"/>
<path d="M10000 9502 c0 -5 30 -50 66 -101 36 -52 63 -98 61 -105 -3 -6 -42
-65 -86 -131 l-82 -120 38 -3 c44 -4 52 4 127 123 l48 78 65 -102 c65 -101 65
-101 105 -101 50 0 51 -2 -53 146 l-81 116 66 99 c36 54 66 101 66 104 0 3
-18 5 -39 5 -39 0 -41 -2 -82 -75 -23 -41 -46 -72 -49 -70 -4 3 -26 36 -49 75
-41 68 -43 70 -81 70 -22 0 -40 -4 -40 -8z"/>
<path d="M8547 9323 c-4 -3 -7 -19 -7 -35 l0 -28 90 0 90 0 0 35 0 35 -83 0
c-46 0 -87 -3 -90 -7z"/>
<path d="M13540 9295 l0 -35 91 0 90 0 -3 33 -3 32 -87 3 -88 3 0 -36z"/>
<path d="M12034 8686 c-60 -26 -95 -107 -75 -169 19 -56 62 -90 123 -94 88 -7
151 51 150 138 -2 105 -101 167 -198 125z"/>
<path d="M12405 8682 c-48 -31 -67 -58 -72 -105 -10 -88 49 -157 136 -157 134
0 189 154 87 249 -35 33 -110 39 -151 13z"/>
<path d="M9713 8406 c-93 -22 -147 -49 -208 -107 -130 -123 -152 -316 -53
-465 54 -80 112 -108 376 -184 50 -15 85 -32 110 -54 33 -31 36 -39 39 -97 5
-80 -18 -122 -80 -149 -114 -50 -255 -30 -463 66 -10 5 -102 -182 -93 -190 12
-10 79 -41 128 -58 207 -71 448 -63 596 22 73 42 149 127 176 198 16 42 22 79
22 142 0 111 -26 181 -94 251 -60 61 -135 98 -294 142 -189 53 -211 71 -203
159 6 56 26 83 83 109 72 33 182 20 295 -35 36 -17 68 -32 72 -34 4 -2 33 36
65 83 66 100 68 94 -42 145 -128 59 -313 83 -432 56z"/>
<path d="M3540 7903 c0 -288 5 -496 11 -523 33 -147 179 -243 389 -257 217
-14 395 68 464 216 20 45 21 60 24 544 l3 497 -125 0 -125 0 -3 -457 c-3 -397
-5 -463 -19 -494 -21 -45 -62 -75 -124 -89 -94 -21 -178 10 -219 80 -20 34
-21 52 -24 498 l-3 462 -124 0 -125 0 0 -477z"/>
<path d="M4680 7760 l0 -620 114 0 c63 0 117 4 120 8 3 5 1 197 -3 428 -5 230
-8 420 -7 421 1 2 21 -46 45 -105 23 -59 106 -251 185 -427 l143 -320 129 0
129 0 3 618 2 617 -121 0 -122 0 7 -317 c3 -175 9 -358 11 -408 l6 -90 -32 85
c-31 87 -99 236 -250 552 l-84 177 -137 1 -138 0 0 -620z"/>
<path d="M5820 7760 l0 -621 128 3 127 3 3 618 2 617 -130 0 -130 0 0 -620z"/>
<path d="M6264 8363 c4 -10 85 -250 181 -533 95 -283 187 -557 205 -608 l33
-93 111 3 111 3 207 600 c115 330 211 610 214 623 6 22 6 22 -123 22 l-129 0
-122 -357 c-67 -197 -130 -387 -140 -423 -11 -36 -22 -58 -25 -50 -3 8 -17 58
-31 110 -14 52 -70 235 -125 405 l-98 310 -138 3 c-128 2 -137 1 -131 -15z"/>
<path d="M7470 7760 l0 -620 360 0 360 0 0 110 0 110 -235 0 -235 0 2 163 3
162 173 3 172 2 0 100 0 100 -175 0 -175 0 0 145 0 145 213 0 213 0 12 83 c7
46 12 91 12 100 0 16 -27 17 -350 17 l-350 0 0 -620z"/>
<path d="M8380 7761 l0 -621 120 0 120 0 0 260 c0 289 -1 286 64 229 41 -36
80 -96 206 -321 l94 -168 143 0 c79 0 143 4 143 8 0 11 -189 327 -249 416 -27
39 -56 78 -65 85 -21 18 -20 31 3 31 67 0 165 81 207 173 26 56 29 72 29 167
0 92 -3 112 -26 160 -37 80 -81 125 -157 162 l-66 33 -283 3 -283 3 0 -620z
m491 393 c50 -29 71 -76 67 -151 -7 -117 -57 -153 -215 -153 l-103 0 0 158 c0
87 3 162 8 166 4 5 53 6 108 4 76 -4 110 -9 135 -24z"/>
<path d="M10490 7760 l0 -621 128 3 127 3 3 618 2 617 -130 0 -130 0 0 -620z"/>
<path d="M10912 8278 l3 -103 147 -3 148 -3 2 -512 3 -512 125 0 125 0 3 513
2 512 145 0 c142 0 145 0 150 23 11 49 35 169 35 178 0 5 -176 9 -445 9 l-446
0 3 -102z"/>
<path d="M11995 7843 c-229 -700 -225 -687 -225 -696 0 -4 57 -6 128 -5 l127
3 44 148 44 147 181 -2 181 -3 23 -72 c12 -40 32 -106 45 -145 l22 -73 133 -3
c72 -1 132 -1 132 0 0 2 -87 280 -194 618 l-193 615 -136 3 -136 3 -176 -538z
m344 91 c18 -78 41 -170 51 -205 11 -35 20 -70 20 -76 0 -10 -30 -13 -116 -13
-115 0 -116 0 -111 23 28 127 113 433 118 424 4 -7 21 -75 38 -153z"/>
<path d="M12844 8367 c-3 -8 -4 -54 -2 -103 l3 -89 153 -3 152 -3 0 -514 0
-515 125 0 125 0 0 515 0 514 147 3 148 3 17 80 c9 44 17 90 17 103 l1 22
-440 0 c-357 0 -442 -3 -446 -13z"/>
<path d="M5381 7023 c-46 -23 -71 -67 -71 -127 0 -43 4 -53 39 -87 34 -35 44
-39 87 -39 112 0 179 107 124 197 -39 64 -116 88 -179 56z"/>
<path d="M5762 7020 c-125 -76 -76 -250 72 -250 43 0 53 4 87 39 35 34 39 44
39 87 0 61 -25 105 -73 127 -46 22 -85 21 -125 -3z"/>
<path d="M12084 6676 c-212 -40 -380 -217 -428 -448 -21 -101 -21 -287 0 -381
42 -190 160 -334 325 -399 42 -17 83 -22 185 -26 149 -5 243 13 365 69 l69 32
0 298 0 299 -234 0 c-129 0 -237 -3 -239 -7 -2 -5 4 -51 12 -103 l16 -95 93
-3 92 -3 0 -140 0 -139 -27 -12 c-45 -18 -172 -15 -225 5 -64 25 -122 91 -145
164 -27 87 -26 424 1 503 46 133 126 193 255 192 85 0 133 -13 203 -56 l57
-34 61 71 c33 39 60 76 60 82 0 19 -114 85 -190 109 -97 31 -214 39 -306 22z"/>
<path d="M3540 6658 c0 -12 273 -1175 286 -1221 5 -16 19 -17 147 -15 l141 3
52 260 c29 143 65 330 79 415 15 85 28 157 30 158 2 2 6 -23 10 -55 11 -89 29
-183 97 -495 l62 -288 137 0 137 0 11 48 c5 26 71 301 146 611 74 310 135 570
135 578 0 18 -248 19 -255 1 -14 -37 -108 -492 -137 -660 -28 -167 -34 -188
-40 -153 -4 22 -18 101 -32 175 -13 74 -47 251 -76 393 l-53 258 -136 -3 -136
-3 -66 -300 c-37 -165 -75 -357 -85 -427 -10 -70 -20 -125 -23 -122 -3 3 -13
58 -22 122 -10 64 -47 253 -83 419 -36 166 -66 305 -66 308 0 3 -58 5 -130 5
-97 0 -130 -3 -130 -12z"/>
<path d="M5192 6163 l3 -508 27 -51 c69 -130 203 -194 408 -194 170 0 278 38
361 127 85 91 84 80 84 638 l0 490 -125 0 -125 0 -5 -470 c-4 -330 -8 -476
-17 -490 -64 -111 -275 -114 -338 -5 -19 33 -20 56 -25 500 l-5 465 -123 3
-123 3 3 -508z"/>
<path d="M6360 6051 l0 -621 120 0 120 0 0 255 c0 251 0 255 21 255 41 0 89
-67 242 -340 42 -74 82 -143 89 -153 12 -16 29 -17 156 -15 l143 3 -98 165
c-120 200 -185 299 -218 332 l-24 25 56 17 c73 23 134 80 176 165 30 61 32 73
32 166 0 89 -3 107 -29 163 -36 77 -104 142 -184 174 -53 21 -75 22 -329 26
l-273 4 0 -621z m477 392 c59 -29 78 -63 78 -143 0 -54 -4 -74 -21 -97 -38
-51 -75 -65 -189 -71 l-105 -5 0 173 0 173 100 -6 c67 -3 111 -11 137 -24z"/>
<path d="M7440 6628 c-6 -24 -18 -65 -26 -92 -24 -84 -44 -78 235 -74 l249 3
-22 -30 c-11 -16 -130 -210 -263 -430 l-243 -400 0 -88 0 -87 387 2 387 3 27
85 c15 47 28 91 28 98 1 9 -58 12 -264 12 l-266 0 29 38 c16 20 134 213 261
428 l231 391 0 91 0 92 -370 0 -369 0 -11 -42z"/>
<path d="M8430 6050 l0 -620 268 0 c151 0 294 5 327 11 162 30 261 142 272
309 10 146 -46 248 -172 309 -59 29 -60 30 -33 40 40 15 106 79 131 125 18 33
22 58 22 131 0 106 -16 147 -82 212 -91 88 -161 103 -495 103 l-238 0 0 -620z
m493 390 c90 -43 88 -207 -3 -253 -28 -14 -56 -17 -140 -15 l-105 3 -3 129
c-1 72 0 136 3 144 4 12 26 14 113 10 59 -3 119 -11 135 -18z m23 -493 c39
-20 74 -88 74 -143 0 -49 -35 -121 -73 -148 -22 -17 -47 -21 -147 -24 l-120
-4 0 172 0 172 118 -4 c85 -3 126 -8 148 -21z"/>
<path d="M9502 6163 l3 -508 25 -48 c46 -90 135 -154 252 -182 75 -17 225 -19
300 -4 83 17 174 66 223 121 79 88 79 86 80 638 l0 485 -125 0 -125 0 -5 -472
c-6 -535 -1 -504 -91 -551 -37 -20 -55 -23 -111 -19 -84 5 -126 29 -155 87
-23 44 -23 47 -23 502 l0 458 -125 0 -126 0 3 -507z"/>
<path d="M10670 6050 l0 -620 120 0 120 0 0 255 c0 254 0 255 22 255 38 0 90
-71 216 -293 l124 -217 144 0 c79 0 144 2 144 5 0 12 -223 377 -273 447 l-56
78 27 6 c95 23 181 110 213 216 27 88 23 209 -8 280 -28 61 -96 134 -153 163
-72 37 -147 45 -402 45 l-238 0 0 -620z m482 393 c46 -27 70 -66 76 -121 13
-136 -70 -199 -250 -190 l-63 3 -3 155 c-1 85 0 161 3 169 8 21 195 9 237 -16z"/>
</g>
</svg>
